<?xml version="1.0" standalone="no"?>
<!DOCTYPE svg PUBLIC "-//W3C//DTD SVG 20010904//EN"
 "http://www.w3.org/TR/2001/REC-SVG-20010904/DTD/svg10.dtd">
<svg version="1.0" xmlns="http://www.w3.org/2000/svg"
 width="225.000000pt" height="225.000000pt" viewBox="0 0 225.000000 225.000000"
 preserveAspectRatio="xMidYMid meet">

<g transform="translate(0.000000,225.000000) scale(0.100000,-0.100000)"
fill="#000000" stroke="none">
<path d="M0 1125 l0 -1125 1125 0 1125 0 0 1125 0 1125 -1125 0 -1125 0 0
-1125z m808 427 l227 -131 5 106 c5 104 5 105 39 135 30 27 39 30 85 26 45 -4
100 -33 455 -238 304 -176 408 -241 423 -264 28 -44 19 -109 -18 -146 -41 -40
-787 -468 -840 -482 -37 -10 -49 -9 -79 5 -49 23 -65 66 -65 172 0 47 -3 85
-6 85 -3 0 -100 -55 -216 -122 -116 -67 -229 -128 -252 -136 -52 -18 -106 -3
-132 36 -18 25 -19 58 -22 502 -2 321 0 487 8 512 16 56 54 81 113 75 38 -3
91 -29 275 -135z"/>
</g>
</svg>
